REM GENRE "Genre"
REM DATE 2013
REM DISCID 123456789
REM COMMENT "ExactAudioCopy v0.99pb4"
PERFORMER "Artist"
TITLE "Album"
FILE "en.wav" WAVE
  TRACK 01 AUDIO
    TITLE "Song01"
    INDEX 00 00:00:00
    INDEX 01 00:00:33
  TRACK 02 AUDIO
    TITLE "Song02"
    INDEX 01 00:46:00
  TRACK 03 AUDIO
    TITLE "Song03"
    INDEX 00 01:22:22
    INDEX 01 01:25:10
  TRACK 04 AUDIO
    TITLE "Song04"
    INDEX 00 02:39:54
    INDEX 01 02:41:05
